<svg width="59" height="73" viewBox="0 0 59 73" fill="none" xmlns="http://www.w3.org/2000/svg">
<path d="M0 65.2792V5C0 2.23858 2.23858 0 5 0H54C56.7614 0 59 2.23857 59 5V65.3841C59 68.9823 55.3135 71.4025 52.012 69.9718L31.0222 60.8763C29.7339 60.318 28.2702 60.3272 26.9889 60.9015L7.04528 69.8418C3.73726 71.3247 0 68.9044 0 65.2792Z" fill="#E8552C"/>
<path d="M28.8433 37.7796V34.6764H36.917V37.7796H28.8433ZM10.0596 42.9423V23.7192H13.0529L23.9552 36.9832H22.4173V23.7192H26.6464V42.9423H23.9277L13.1353 29.9256H14.2887V42.9423H10.0596ZM32.5781 33.3857C31.9373 33.3857 31.3423 33.2759 30.7931 33.0562C30.2438 32.8365 29.7587 32.5344 29.3376 32.1499C28.9348 31.7655 28.6145 31.3078 28.3765 30.7769C28.1568 30.2276 28.0469 29.6235 28.0469 28.9644C28.0469 28.3053 28.1568 27.7103 28.3765 27.1794C28.6145 26.6302 28.9348 26.1633 29.3376 25.7789C29.7404 25.3944 30.2164 25.0923 30.7656 24.8726C31.3148 24.6529 31.919 24.5431 32.5781 24.5431C33.2188 24.5431 33.8138 24.6529 34.3631 24.8726C34.9123 25.0923 35.3883 25.3944 35.7911 25.7789C36.1938 26.1633 36.5142 26.6302 36.7522 27.1794C36.9902 27.7103 37.1092 28.3053 37.1092 28.9644C37.1092 29.6235 36.9902 30.2276 36.7522 30.7769C36.5325 31.3078 36.2122 31.7655 35.7911 32.1499C35.3883 32.5344 34.9123 32.8365 34.3631 33.0562C33.8138 33.2759 33.2188 33.3857 32.5781 33.3857ZM32.5781 30.6121C32.8344 30.6121 33.0632 30.5755 33.2646 30.5022C33.466 30.4107 33.6308 30.3009 33.7589 30.1727C33.9054 30.0262 34.0152 29.8523 34.0885 29.6509C34.18 29.4312 34.2258 29.2024 34.2258 28.9644C34.2258 28.7081 34.1892 28.4792 34.1159 28.2779C34.0427 28.0765 33.9328 27.9026 33.7864 27.7561C33.6399 27.6096 33.466 27.4998 33.2646 27.4266C33.0632 27.3533 32.8344 27.3167 32.5781 27.3167C32.3401 27.3167 32.1112 27.3625 31.8915 27.454C31.6902 27.5272 31.5162 27.6371 31.3698 27.7836C31.2416 27.9117 31.1318 28.0765 31.0402 28.2779C30.967 28.4792 30.9304 28.7081 30.9304 28.9644C30.9304 29.2024 30.967 29.4312 31.0402 29.6509C31.1318 29.8523 31.2416 30.0262 31.3698 30.1727C31.5162 30.3009 31.6902 30.4107 31.8915 30.5022C32.1112 30.5755 32.3401 30.6121 32.5781 30.6121ZM43.2535 42.9423V27.0696L44.4069 27.8659L39.1892 29.7882V26.1359L46.9059 23.2524V42.9423H43.2535Z" fill="white"/>
</svg>
